<mxfile host="app.diagrams.net" modified="2023-06-24T14:14:09.047Z" agent="Mozilla/5.0 (Windows NT 10.0; Win64; x64) AppleWebKit/537.36 (KHTML, like Gecko) Chrome/109.0.0.0 Safari/537.36" version="21.5.0" etag="x0gqV2H4Q2bUh71OQUFV" type="github">
  <diagram name="Page-1" id="cesKl-hl_6SfPQEcWfFn">
    <mxGraphModel>
      <root>
        <mxCell id="0" />
        <mxCell id="1" parent="0" />
      </root>
    </mxGraphModel>
  </diagram>
</mxfile>
